<svg width="106" height="26" viewBox="0 0 106 26" fill="none" xmlns="http://www.w3.org/2000/svg">
<path opacity="0.8" fill-rule="evenodd" clip-rule="evenodd" d="M13.2483 25.1505C20.3766 25.1505 26.1552 19.7056 26.1552 12.9891C26.1552 6.27253 20.3766 0.827637 13.2483 0.827637C6.12002 0.827637 0.34137 6.27253 0.34137 12.9891C0.34137 19.7056 6.12002 25.1505 13.2483 25.1505ZM95.742 12.9922C95.742 7.34559 99.8264 2.59783 105.362 1.22842C104.31 0.966926 103.205 0.827637 102.064 0.827637C94.9356 0.827637 89.157 6.27253 89.157 12.9891C89.157 19.7056 94.9356 25.1505 102.064 25.1505C103.2 25.1505 104.301 25.0123 105.351 24.7528C99.8201 23.3794 95.742 18.6345 95.742 12.9922ZM50.1059 24.5316C49.6494 24.9331 48.7942 25.1505 47.3699 25.1505C40.2416 25.1505 34.4629 19.7056 34.4629 12.9891C34.4629 6.27253 40.2416 0.827637 47.3699 0.827637C48.819 0.827637 49.6789 1.05266 50.1293 1.46765C54.1497 3.08893 57.0448 7.63735 57.0448 12.9949C57.0448 18.3629 54.1385 22.9185 50.1059 24.5316ZM66.3313 12.9866C66.3313 6.37619 71.9286 0.997629 78.9007 0.829186V25.144C71.9286 24.9755 66.3313 19.5969 66.3313 12.9866Z" fill="url(#paint0_linear_10898_731)"/>
<defs>
<linearGradient id="paint0_linear_10898_731" x1="24.0864" y1="54.7396" x2="118.365" y2="68.4605" gradientUnits="userSpaceOnUse">
<stop stop-color="#F0C9D1"/>
<stop offset="0.75864" stop-color="#4E79C0"/>
</linearGradient>
</defs>
</svg>
