<svg width="143" height="33" viewBox="0 0 143 33" fill="none" xmlns="http://www.w3.org/2000/svg">
<path d="M137.608 3.10851H136.656V5.72886C136.656 6.12588 136.894 6.28469 137.132 6.28469C137.291 6.28469 137.529 6.28469 137.608 6.28469V7.47575C137.449 7.47575 136.973 7.55516 136.656 7.55516C135.306 7.55516 135.148 6.76111 135.148 5.96707V3.10851H134.433V2.15566H135.148V0.646973H136.656V2.15566H137.608V3.10851Z" fill="#908E8E"/>
<path d="M141.969 3.58503C141.652 3.18801 141.017 3.0292 140.541 3.0292C140.144 3.0292 139.906 3.18801 139.906 3.42622C139.906 4.29967 143.001 3.58503 143.001 5.57014C143.001 6.99942 141.731 7.47585 140.62 7.47585C139.509 7.47585 138.794 7.15823 138.08 6.44359L139.032 5.57014C139.509 6.04657 139.985 6.28478 140.699 6.28478C140.937 6.28478 141.572 6.20538 141.572 5.72895C141.572 4.93491 138.477 5.57014 138.477 3.66444C138.477 2.31456 139.667 1.83813 140.699 1.83813C141.493 1.83813 142.287 2.15575 143.001 2.63218L141.969 3.58503Z" fill="#908E8E"/>
<path d="M16.6732 0.314453H10.3236V20.9596H16.6732V0.314453Z" fill="#908E8E"/>
<path d="M26.9812 0.314453H20.6316V30.4881H26.9812V0.314453Z" fill="#908E8E"/>
<path d="M6.34961 0.314453H0V30.4881H6.34961V0.314453Z" fill="#908E8E"/>
<path d="M57.1294 0.314575H41.2553V6.66693H57.1294V0.314575Z" fill="#908E8E"/>
<path d="M47.605 10.5724H41.2553V30.4235H47.605V10.5724Z" fill="#908E8E"/>
<path d="M37.2892 0.25H30.9396V6.60236H37.2892V0.25Z" fill="#908E8E"/>
<path d="M37.2892 10.5724H30.9396V30.4235H37.2892V10.5724Z" fill="#908E8E"/>
<path d="M70.6175 0.25H73.2367L74.5066 5.49069L75.7765 0.25H78.3164V7.31699H76.6496V1.83809L75.2209 7.31699H73.6335L72.2049 1.83809V7.31699H70.6175V0.25Z" fill="#908E8E"/>
<path d="M84.1089 6.20544C84.1089 6.60246 84.1089 6.99949 84.2677 7.3171H82.839C82.7596 7.1583 82.7596 6.92008 82.7596 6.76127C82.5215 7.1583 81.7278 7.47591 81.1722 7.47591C80.1404 7.47591 79.4261 6.92008 79.4261 5.88782C79.4261 4.61735 80.4579 4.14093 82.1247 3.90271L82.6803 3.82331V3.42629C82.6803 3.02926 82.3628 2.87046 81.9659 2.87046C81.4897 2.87046 81.2516 3.02926 81.1722 3.5851H79.6642C79.7436 2.07641 81.0929 1.9176 81.8072 1.9176C83.2359 1.9176 84.1089 2.23522 84.1883 3.42629C84.1089 3.42629 84.1089 6.20544 84.1089 6.20544ZM82.6803 4.77616L81.6485 5.09378C81.2516 5.17318 80.9341 5.33199 80.9341 5.80842C80.9341 6.20544 81.2516 6.44366 81.6485 6.44366C82.2834 6.44366 82.6803 6.04663 82.6803 5.25259V4.77616Z" fill="#908E8E"/>
<path d="M89.0315 3.58503C88.714 3.18801 88.079 3.0292 87.6028 3.0292C87.206 3.0292 86.9679 3.18801 86.9679 3.42622C86.9679 4.29967 90.0633 3.58503 90.0633 5.57014C90.0633 6.99942 88.7934 7.47585 87.6822 7.47585C86.571 7.47585 85.8567 7.15823 85.1423 6.44359L86.0948 5.57014C86.571 6.04657 87.0472 6.28478 87.7616 6.28478C87.9997 6.28478 88.6346 6.20538 88.6346 5.72895C88.6346 4.93491 85.5392 5.57014 85.5392 3.66444C85.5392 2.31456 86.7297 1.83813 87.7616 1.83813C88.5553 1.83813 89.349 2.15575 90.0633 2.63218L89.0315 3.58503Z" fill="#908E8E"/>
<path d="M94.5134 3.58503C94.196 3.18801 93.561 3.0292 93.0848 3.0292C92.6879 3.0292 92.4498 3.18801 92.4498 3.42622C92.4498 4.29967 95.5453 3.58503 95.5453 5.57014C95.5453 6.99942 94.3547 7.47585 93.1641 7.47585C92.053 7.47585 91.3386 7.15823 90.6243 6.44359L91.5767 5.57014C92.053 6.04657 92.5292 6.28478 93.2435 6.28478C93.4816 6.28478 94.1166 6.20538 94.1166 5.72895C94.1166 4.93491 91.0211 5.57014 91.0211 3.66444C91.0211 2.31456 92.2117 1.83813 93.2435 1.83813C94.0372 1.83813 94.8309 2.15575 95.5453 2.63218L94.5134 3.58503Z" fill="#908E8E"/>
<path d="M101.109 6.20544C101.109 6.60246 101.109 6.99949 101.268 7.3171H99.8394C99.76 7.1583 99.76 6.92008 99.76 6.76127C99.5219 7.1583 98.7282 7.47591 98.1726 7.47591C97.1408 7.47591 96.4265 6.92008 96.4265 5.88782C96.4265 4.61735 97.4583 4.14093 99.125 3.90271L99.6806 3.82331V3.42629C99.6806 3.02926 99.3631 2.87046 98.9663 2.87046C98.4901 2.87046 98.252 3.02926 98.1726 3.5851H96.6646C96.7439 2.07641 98.0932 1.9176 98.8076 1.9176C100.236 1.9176 101.109 2.23522 101.189 3.42629C101.109 3.42629 101.109 6.20544 101.109 6.20544ZM99.6013 4.77616L98.5694 5.09378C98.1726 5.17318 97.8551 5.33199 97.8551 5.80842C97.8551 6.20544 98.1726 6.44366 98.5694 6.44366C99.2044 6.44366 99.6013 6.04663 99.6013 5.25259V4.77616Z" fill="#908E8E"/>
<path d="M105.945 3.82331C105.627 3.18807 105.23 3.10867 104.992 3.10867C104.119 3.10867 103.802 3.82331 103.802 4.69676C103.802 5.57021 104.199 6.28485 104.992 6.28485C105.468 6.28485 105.865 6.12604 106.103 5.4908L107.215 6.04663C106.738 6.92008 105.865 7.47591 104.833 7.47591C103.246 7.47591 102.135 6.44366 102.135 4.69676C102.135 2.94986 103.325 1.9176 104.754 1.9176C105.786 1.9176 106.659 2.31462 107.135 3.18807L105.945 3.82331Z" fill="#908E8E"/>
<path d="M108.007 0.25H109.515V2.55273C109.833 2.15571 110.468 1.91749 110.944 1.91749C112.055 1.91749 112.611 2.55273 112.611 3.58499V7.31699H111.103V4.14082C111.103 3.34677 110.627 3.10856 110.309 3.10856C109.992 3.10856 109.515 3.34677 109.515 4.29963V7.23759H108.007V0.25Z" fill="#908E8E"/>
<path d="M118.717 7.31686H117.209V6.84044C116.813 7.31687 116.178 7.47567 115.701 7.47567C114.431 7.47567 114.114 6.76103 114.114 5.96699V2.07617H115.622V5.49056C115.622 5.96699 115.781 6.2052 116.336 6.2052C116.813 6.2052 117.13 5.96699 117.13 5.41116V2.07617H118.638L118.717 7.31686Z" fill="#908E8E"/>
<path d="M123.555 3.58503C123.238 3.18801 122.603 3.0292 122.127 3.0292C121.73 3.0292 121.492 3.18801 121.492 3.42622C121.412 4.37908 124.587 3.58503 124.587 5.57014C124.587 6.99942 123.317 7.47585 122.206 7.47585C121.095 7.47585 120.381 7.15823 119.666 6.44359L120.619 5.57014C121.095 6.04657 121.571 6.28478 122.285 6.28478C122.524 6.28478 123.159 6.20538 123.159 5.72895C123.159 4.93491 120.063 5.57014 120.063 3.66444C120.063 2.31456 121.254 1.83813 122.285 1.83813C123.079 1.83813 123.873 2.15575 124.587 2.63218L123.555 3.58503Z" fill="#908E8E"/>
<path d="M126.822 5.01438C126.822 6.04663 127.456 6.36425 127.933 6.36425C128.488 6.36425 128.806 6.04663 129.203 5.4114L130.393 6.04663C129.838 6.99949 129.044 7.47591 127.853 7.47591C126.187 7.47591 125.234 6.36425 125.234 4.85557C125.234 3.02926 126.187 1.9176 127.853 1.9176C129.758 1.9176 130.393 3.34688 130.473 5.01438H126.822ZM128.885 4.06152C128.806 3.26748 128.25 3.02926 127.853 3.02926C127.456 3.02926 126.901 3.34688 126.822 4.06152H128.885Z" fill="#908E8E"/>
<path d="M134.125 3.10863H133.173V5.72898C133.173 6.126 133.411 6.28481 133.649 6.28481C133.808 6.28481 134.046 6.28481 134.125 6.28481V7.47588C133.966 7.47588 133.49 7.55528 133.173 7.55528C131.823 7.55528 131.665 6.76124 131.665 5.96719V3.10863H130.95V2.15578H131.665V0.647095H133.173V2.15578H134.125V3.10863Z" fill="#908E8E"/>
<path d="M70.7034 11.8429H72.4503V18.9099H70.7034V11.8429Z" fill="#908E8E"/>
<path d="M73.7879 13.5897H75.3753V14.0661C75.7722 13.5897 76.4072 13.4309 76.8834 13.4309C78.1533 13.4309 78.4708 14.1455 78.4708 14.9396V18.8304H76.9627V15.4954C76.9627 15.019 76.804 14.622 76.2484 14.622C75.6135 14.622 75.4547 15.019 75.4547 15.4954V18.751H73.7879C73.7879 18.8304 73.7879 13.5897 73.7879 13.5897Z" fill="#908E8E"/>
<path d="M83.3243 15.1778C83.0068 14.7808 82.3719 14.622 81.8957 14.622C81.4988 14.622 81.2607 14.7808 81.2607 15.019C81.2607 15.8924 84.3561 15.1778 84.3561 17.1629C84.3561 18.5128 83.0862 19.0686 81.975 19.0686C80.8638 19.0686 80.1495 18.6716 79.3558 17.957L80.3083 17.1629C80.7845 17.6393 81.2607 17.8776 81.975 17.8776C82.2131 17.8776 82.8481 17.7982 82.8481 17.3217C82.8481 16.5277 79.7527 17.1629 79.7527 15.2572C79.7527 13.9073 80.9432 13.4309 81.975 13.4309C82.7687 13.4309 83.5624 13.7485 84.2768 14.225L83.3243 15.1778Z" fill="#908E8E"/>
<path d="M88.0048 14.6221H87.0523V17.2425C87.0523 17.6395 87.2905 17.7983 87.5286 17.7983C87.6873 17.7983 87.9254 17.7983 88.0048 17.7983V18.9894C87.846 18.9894 87.3698 19.0688 87.0523 19.0688C85.703 19.0688 85.5443 18.2747 85.5443 17.4807V14.7015H84.83V13.7487H85.5443V12.24H87.0523V13.7487H88.0048C88.0048 13.6693 88.0048 14.6221 88.0048 14.6221Z" fill="#908E8E"/>
<path d="M88.8751 13.034V11.8429H90.3838V13.034H88.8751ZM90.4632 13.5898V18.8305H88.8751V13.5898H90.4632Z" fill="#908E8E"/>
<path d="M94.4316 14.6221H93.4792V17.2425C93.4792 17.6395 93.7173 17.7983 93.9554 17.7983C94.1142 17.7983 94.3523 17.7983 94.4316 17.7983V18.9894C94.2729 18.9894 93.7967 19.0688 93.4792 19.0688C92.1299 19.0688 91.9712 18.2747 91.9712 17.4807V14.7015H91.2568V13.7487H91.9712V12.24H93.4792V13.7487H94.4316C94.4316 13.6693 94.4316 14.6221 94.4316 14.6221Z" fill="#908E8E"/>
<path d="M99.9835 18.8307H98.4755V18.3542C98.0786 18.8307 97.4437 18.9895 96.9674 18.9895C95.6975 18.9895 95.38 18.2748 95.38 17.4808V13.59H96.8881V17.0838C96.8881 17.5602 97.0468 17.7984 97.6024 17.7984C98.0786 17.7984 98.3961 17.5602 98.3961 17.0044V13.6694H99.9041L99.9835 18.8307Z" fill="#908E8E"/>
<path d="M104.038 14.6221H103.086V17.2425C103.086 17.6395 103.324 17.7983 103.562 17.7983C103.721 17.7983 103.959 17.7983 104.038 17.7983V18.9894C103.879 18.9894 103.403 19.0688 103.086 19.0688C101.736 19.0688 101.578 18.2747 101.578 17.4807V14.7015H100.784V13.7487H101.498V12.24H103.006V13.7487H103.959L104.038 14.6221Z" fill="#908E8E"/>
<path d="M106.018 16.5277C106.018 17.5599 106.653 17.8776 107.129 17.8776C107.685 17.8776 108.002 17.5599 108.399 16.9247L109.59 17.5599C109.034 18.5128 108.241 18.9892 107.05 18.9892C105.383 18.9892 104.431 17.8776 104.431 16.3689C104.431 14.5426 105.383 13.4309 107.05 13.4309C108.955 13.4309 109.59 14.9396 109.669 16.5277H106.018ZM108.161 15.5748C108.082 14.7808 107.526 14.5426 107.129 14.5426C106.732 14.5426 106.177 14.8602 106.098 15.5748H108.161Z" fill="#908E8E"/>
<path d="M118.795 16.2101C118.795 17.957 117.605 18.9892 116.017 18.9892C114.43 18.9892 113.239 17.957 113.239 16.2101C113.239 14.4632 114.43 13.4309 116.017 13.4309C117.605 13.4309 118.795 14.4632 118.795 16.2101ZM114.668 16.2101C114.668 17.0835 115.065 17.7982 115.938 17.7982C116.811 17.7982 117.208 17.0835 117.208 16.1307C117.208 15.2572 116.811 14.622 115.938 14.622C115.065 14.622 114.668 15.3366 114.668 16.2101Z" fill="#908E8E"/>
<path d="M119.999 14.6222H119.206V13.6694H119.999V13.193C119.999 12.5577 120.158 11.7637 121.507 11.7637C121.825 11.7637 122.301 11.8431 122.539 11.8431V12.9547H122.063C121.825 12.9547 121.507 13.0341 121.507 13.3518V13.6694H122.46V14.6222H121.507V18.8307H119.999V14.6222Z" fill="#908E8E"/>
<path d="M68.8682 23.3566H74.3448V24.7064H72.5193V30.4236H70.7731V24.7064H68.9476V23.3566H68.8682Z" fill="#908E8E"/>
<path d="M75.5472 28.1209C75.5472 29.1532 76.1821 29.4708 76.6583 29.4708C77.2139 29.4708 77.5314 29.1532 77.9283 28.518L79.1188 29.1532C78.6426 30.1061 77.7695 30.5825 76.579 30.5825C74.9122 30.5825 73.9597 29.4708 73.9597 27.9621C73.9597 26.1358 74.9122 25.0242 76.579 25.0242C78.4838 25.0242 79.1188 26.4535 79.1982 28.1209H75.5472ZM77.6108 27.1681C77.5314 26.374 76.9758 26.1358 76.579 26.1358C76.1821 26.1358 75.6265 26.4535 75.5472 27.1681H77.6108Z" fill="#908E8E"/>
<path d="M83.7122 26.9299C83.4741 26.2946 82.9979 26.2152 82.7598 26.2152C81.8867 26.2152 81.5692 26.9299 81.5692 27.8033C81.5692 28.6768 81.9661 29.3914 82.7598 29.3914C83.236 29.3914 83.6328 29.2326 83.871 28.5974L84.9821 29.1532C84.5059 30.0266 83.6328 30.5825 82.601 30.5825C81.0136 30.5825 79.9025 29.5502 79.9025 27.8033C79.9025 26.0564 81.093 25.0242 82.5217 25.0242C83.5535 25.0242 84.3472 25.4212 84.9028 26.2946L83.7122 26.9299Z" fill="#908E8E"/>
<path d="M85.7827 23.3566H87.2907V25.6593C87.6082 25.2623 88.2432 25.0241 88.7194 25.0241C89.8306 25.0241 90.3862 25.6593 90.3862 26.6916V30.4236H88.8781V27.2474C88.8781 26.4533 88.4019 26.2151 88.0844 26.2151C87.7669 26.2151 87.2907 26.4533 87.2907 27.4062V30.3442H85.7827V23.3566Z" fill="#908E8E"/>
<path d="M91.8113 25.183H93.3193V25.6594C93.7162 25.183 94.3511 25.0242 94.8273 25.0242C96.0973 25.0242 96.4148 25.7388 96.4148 26.5329V30.4237H94.9067V27.0887C94.9067 26.5329 94.748 26.2152 94.1924 26.2152C93.5574 26.2152 93.3987 26.6123 93.3987 27.0887V30.3443H91.8907L91.8113 25.183Z" fill="#908E8E"/>
<path d="M103.162 27.8033C103.162 29.5502 101.971 30.5825 100.384 30.5825C98.7168 30.5825 97.6056 29.5502 97.6056 27.8033C97.6056 26.0564 98.7962 25.0242 100.384 25.0242C101.971 25.0242 103.162 25.977 103.162 27.8033ZM99.1137 27.8033C99.1137 28.6768 99.5105 29.3914 100.384 29.3914C101.257 29.3914 101.654 28.6768 101.654 27.7239C101.654 26.8505 101.257 26.2152 100.384 26.2152C99.4311 26.2152 99.1137 26.8505 99.1137 27.8033Z" fill="#908E8E"/>
<path d="M104.204 30.4236V23.3566H105.713V30.4236H104.204Z" fill="#908E8E"/>
<path d="M112.368 27.8033C112.368 29.5502 111.178 30.5825 109.59 30.5825C108.003 30.5825 106.813 29.5502 106.813 27.8033C106.813 26.0564 108.003 25.0242 109.59 25.0242C111.178 25.0242 112.368 25.977 112.368 27.8033ZM108.241 27.8033C108.241 28.6768 108.638 29.3914 109.511 29.3914C110.384 29.3914 110.781 28.6768 110.781 27.7239C110.781 26.8505 110.384 26.2152 109.511 26.2152C108.638 26.2152 108.241 26.8505 108.241 27.8033Z" fill="#908E8E"/>
<path d="M118.007 25.183V30.5031C118.007 32.1706 116.261 32.25 115.467 32.25C113.879 32.25 113.086 31.6941 113.006 30.4237H114.594C114.594 30.9795 114.911 31.2177 115.467 31.2177C116.022 31.2177 116.419 31.0589 116.419 30.3443V29.709C116.102 30.0267 115.467 30.1061 114.991 30.1061C113.483 30.1061 112.927 28.915 112.927 27.5651C112.927 26.2946 113.641 25.0242 114.991 25.0242C115.546 25.0242 116.102 25.183 116.499 25.58V25.183C116.578 25.183 118.007 25.183 118.007 25.183ZM115.467 26.1358C114.991 26.1358 114.514 26.4535 114.514 27.5651C114.514 28.2003 114.673 28.9944 115.467 28.9944C116.419 28.9944 116.499 28.1209 116.499 27.5651C116.499 26.4535 115.943 26.1358 115.467 26.1358Z" fill="#908E8E"/>
<path d="M119.118 30.9794C119.277 30.9794 119.436 30.9794 119.674 30.9794C120.15 30.9794 120.388 30.9 120.388 30.5824C120.388 30.503 120.388 30.4236 120.229 30.0265L118.721 25.1829H120.388L121.261 29.2325L122.134 25.1829H123.801L121.976 30.8206C121.737 31.6146 121.341 32.2499 120.468 32.2499H119.277L119.118 30.9794Z" fill="#908E8E"/>
</svg>
