<svg width="46" height="45" viewBox="0 0 46 45" fill="none" xmlns="http://www.w3.org/2000/svg">
<g opacity="0.2">
<path fill-rule="evenodd" clip-rule="evenodd" d="M22.0078 11.8929C16.6595 12.5461 12.5171 17.1033 12.5171 22.6281C12.5171 28.1528 16.6595 32.71 22.0078 33.3632V31.6606C17.5944 31.0189 14.2046 27.2193 14.2046 22.6281C14.2046 18.0368 17.5944 14.2372 22.0078 13.5956V11.8929ZM18.3286 5.26135C18.2831 4.79759 17.8702 4.45856 17.4064 4.5041C16.9427 4.54964 16.6036 4.96251 16.6492 5.42627L16.9756 8.75016C17.0211 9.21392 17.434 9.55296 17.8977 9.50742C18.3615 9.46188 18.7005 9.04901 18.655 8.58525L18.3286 5.26135ZM8.56138 9.99659C8.19386 9.7101 7.66368 9.77579 7.37719 10.1433C7.0907 10.5108 7.15639 11.041 7.52391 11.3275L10.539 13.6778C10.9066 13.9643 11.4367 13.8986 11.7232 13.5311C12.0097 13.1636 11.944 12.6334 11.5765 12.3469L8.56138 9.99659ZM4.71875 21.7843C4.25276 21.7843 3.875 22.1621 3.875 22.6281C3.875 23.094 4.25276 23.4718 4.71875 23.4718H8.04264C8.50863 23.4718 8.88639 23.094 8.88639 22.6281C8.88639 22.1621 8.50863 21.7843 8.04264 21.7843H4.71875ZM11.6159 32.5678C11.9654 32.2595 11.9988 31.7264 11.6906 31.3769C11.3824 31.0274 10.8492 30.9939 10.4997 31.3021L7.48455 33.9613C7.13506 34.2695 7.10161 34.8027 7.40983 35.1522C7.71806 35.5017 8.25124 35.5351 8.60073 35.2269L11.6159 32.5678ZM18.611 37.6527C18.766 37.2132 18.5354 36.7313 18.0959 36.5763C17.6565 36.4213 17.1746 36.6519 17.0196 37.0913L15.8891 40.2964C15.7341 40.7359 15.9646 41.2178 16.4041 41.3728C16.8436 41.5278 17.3255 41.2972 17.4805 40.8577L18.611 37.6527Z" fill="#221D1E"/>
<path fill-rule="evenodd" clip-rule="evenodd" d="M27.9922 5.625C27.9922 5.15901 27.6144 4.78125 27.1484 4.78125C26.6824 4.78125 26.3047 5.15901 26.3047 5.625V11.9917V22.6281V33.2646V38.8125C26.3047 39.2785 26.6824 39.6562 27.1484 39.6562C27.6144 39.6562 27.9922 39.2785 27.9922 38.8125V35.3016L30.5405 37.8499C30.87 38.1794 31.4042 38.1794 31.7337 37.8499C32.0632 37.5204 32.0632 36.9861 31.7337 36.6566L27.9922 32.9151V24.0895L35.6353 28.5023L37.0048 33.6134C37.1254 34.0635 37.5881 34.3306 38.0382 34.21C38.4883 34.0894 38.7554 33.6268 38.6348 33.1766L37.3932 28.543L42.0269 27.3013C42.477 27.1807 42.7441 26.718 42.6235 26.2679C42.5029 25.8178 42.0402 25.5507 41.5901 25.6713L36.4791 27.0409L28.8359 22.6281L36.4791 18.2153L41.5901 19.5849C42.0402 19.7055 42.5029 19.4384 42.6235 18.9883C42.7441 18.5382 42.477 18.0755 42.0269 17.9549L37.3932 16.7133L38.6348 12.0795C38.7554 11.6294 38.4883 11.1668 38.0382 11.0462C37.5881 10.9256 37.1254 11.1927 37.0048 11.6428L35.6353 16.7539L27.9922 21.1667V12.3412L31.7337 8.59961C32.0632 8.27011 32.0632 7.73587 31.7337 7.40637C31.4042 7.07686 30.87 7.07686 30.5405 7.40637L27.9922 9.95467V5.625Z" fill="#221D1E"/>
</g>
</svg>
