<svg width="50" height="49" viewBox="0 0 50 49" fill="none" xmlns="http://www.w3.org/2000/svg">
<path d="M42.9531 21.9759V11.8711" stroke="#6E89C3" stroke-width="2.4" stroke-linecap="square" stroke-linejoin="round"/>
<path d="M47.9876 16.9224H37.8828" stroke="#6E89C3" stroke-width="2.4" stroke-linecap="square" stroke-linejoin="round"/>
<path d="M32.8359 3.4502V10.1867" stroke="#6E89C3" stroke-width="2.4" stroke-linecap="square" stroke-linejoin="round"/>
<path d="M36.2131 6.81787H29.4766" stroke="#6E89C3" stroke-width="2.4" stroke-linecap="square" stroke-linejoin="round"/>
<mask id="path-5-inside-1_10898_340" fill="white">
<path fill-rule="evenodd" clip-rule="evenodd" d="M39.2964 34.9949C38.97 35.0103 38.6417 35.018 38.3115 35.018C26.9126 35.018 17.6719 25.7773 17.6719 14.3784C17.6719 11.222 18.3804 8.23117 19.647 5.55615C8.70536 6.07015 -0.0078125 15.1039 -0.0078125 26.1727C-0.0078125 37.5717 9.23287 46.8124 20.6318 46.8124C28.8745 46.8124 35.9886 41.9806 39.2964 34.9949Z"/>
</mask>
<path d="M39.2964 34.9949L41.4655 36.022L43.1758 32.41L39.1837 32.5976L39.2964 34.9949ZM19.647 5.55615L21.8161 6.58324L23.5264 2.97127L19.5344 3.1588L19.647 5.55615ZM39.1837 32.5976C38.8949 32.6111 38.6041 32.618 38.3115 32.618V37.418C38.6792 37.418 39.0451 37.4094 39.409 37.3923L39.1837 32.5976ZM38.3115 32.618C28.238 32.618 20.0719 24.4518 20.0719 14.3784H15.2719C15.2719 27.1028 25.5871 37.418 38.3115 37.418V32.618ZM20.0719 14.3784C20.0719 11.5847 20.6983 8.94396 21.8161 6.58324L17.4779 4.52906C16.0624 7.51837 15.2719 10.8594 15.2719 14.3784H20.0719ZM2.39219 26.1727C2.39219 16.3917 10.0922 8.40765 19.7596 7.95351L19.5344 3.1588C7.31852 3.73265 -2.40781 13.8161 -2.40781 26.1727H2.39219ZM20.6318 44.4124C10.5584 44.4124 2.39219 36.2462 2.39219 26.1727H-2.40781C-2.40781 38.8972 7.90739 49.2124 20.6318 49.2124V44.4124ZM37.1272 33.9678C34.2015 40.1468 27.9124 44.4124 20.6318 44.4124V49.2124C29.8366 49.2124 37.7757 43.8144 41.4655 36.022L37.1272 33.9678Z" fill="#6E89C3" mask="url(#path-5-inside-1_10898_340)"/>
</svg>
