<svg width="52" height="49" viewBox="0 0 52 49" fill="none" xmlns="http://www.w3.org/2000/svg">
<path d="M29.5485 21.0377C30.6264 19.9614 31.7599 18.8293 33.1175 17.4736C34.9092 15.7263 37.3579 14.6499 40.0581 14.6499C45.5488 14.6499 50 19.1011 50 24.5918C50 30.0825 45.5488 34.5337 40.0581 34.5337C37.1161 34.5337 34.4728 33.2558 32.6524 31.225L26.0089 24.5726L18.8824 17.4736C17.0908 15.7263 14.642 14.6499 11.9419 14.6499C6.45113 14.6499 2 19.1011 2 24.5918C2 30.0825 6.45113 34.5337 11.9419 34.5337C14.8837 34.5337 17.5273 33.2558 19.3477 31.225L22.4283 28.1483" stroke="#6E89C3" stroke-width="2.4"/>
</svg>
