<svg width="46" height="45" viewBox="0 0 46 45" fill="none" xmlns="http://www.w3.org/2000/svg">
<g opacity="0.2">
<path d="M31.6408 43.8753H14.9423C13.9169 43.8753 12.9289 43.516 12.1579 42.8648C8.32566 39.6014 6.125 34.8487 6.125 29.8036C6.125 25.0207 8.04859 20.5746 11.5366 17.2966C15.0246 14.0186 19.5977 12.3788 24.3957 12.671C32.9957 13.2024 39.8894 20.0883 40.4355 28.6811C40.7798 34.1377 38.6018 39.3022 34.4477 42.8499C33.6767 43.5085 32.6812 43.8753 31.6408 43.8753ZM23.2875 14.138C19.2756 14.138 15.4956 15.6275 12.5543 18.3894C9.37326 21.3834 7.61454 25.4403 7.61454 29.8038C7.61454 34.3995 9.62048 38.7405 13.1234 41.7196C13.6249 42.1388 14.2686 42.3783 14.9422 42.3783H31.6407C32.3219 42.3783 32.973 42.1463 33.4745 41.7196C37.2618 38.4862 39.2526 33.7706 38.9383 28.7858C38.4368 20.9417 32.1419 14.6621 24.2982 14.1754C23.9614 14.1455 23.6243 14.138 23.2875 14.138Z" fill="#221D1E"/>
<path d="M33.3648 17.7058C33.2675 17.7058 33.4621 17.7432 33.3648 17.7058C32.9831 17.5411 32.6079 16.9032 32.7726 16.5215L34.5371 12.8913C35.2632 11.1773 35.2183 9.3135 34.4099 7.62962C33.4219 5.58627 31.416 4.01442 28.9087 3.32582C27.2396 2.86176 25.3534 2.62974 23.295 2.62974C21.2365 2.62974 19.3579 2.86177 17.6812 3.32582C15.1738 4.01442 13.1678 5.58627 12.18 7.62962C11.3642 9.3137 11.3193 11.1849 12.0528 12.8913L13.8231 17.1136C13.9878 17.4954 13.6127 16.9489 13.2309 17.1136C12.8492 17.2783 12.8035 18.0875 12.6388 17.7058L10.6756 13.4751C9.77738 11.3644 9.82979 9.05156 10.8327 6.97085C12.0079 4.53828 14.3581 2.68204 17.2848 1.87348C19.0812 1.37951 21.1021 1.125 23.2952 1.125C25.4883 1.125 27.5017 1.37948 29.3056 1.87348C32.2322 2.68185 34.5826 4.53809 35.7576 6.97085C36.7606 9.05166 36.8205 11.3569 35.9148 13.4751L33.957 17.7058C33.8297 17.9902 33.6492 17.7058 33.3648 17.7058Z" fill="#221D1E"/>
<path d="M16.1961 15.3374L15.0883 12.8314C14.6018 11.7461 14.5643 10.5335 14.991 9.43326C15.4849 8.14587 16.5553 7.08305 17.9924 6.4468C19.5343 5.76567 21.3231 5.42139 23.3067 5.42139C25.2904 5.42139 27.0791 5.76569 28.6211 6.4468C30.0582 7.083 31.1285 8.14587 31.6225 9.43326C32.0491 10.5335 32.0117 11.7461 31.5252 12.8314L30.4082 15.3374L29.2239 14.7452L30.163 12.2177C30.4923 11.4842 30.5148 10.7057 30.2303 9.9722C29.8785 9.05907 29.0926 8.28812 28.0223 7.81656C26.675 7.21777 25.0882 6.91838 23.3143 6.91838C21.5404 6.91838 19.9611 7.21777 18.6064 7.81656C17.536 8.28811 16.7501 9.05907 16.3983 9.9722C16.1139 10.7132 16.1364 11.4916 16.4657 12.2177L17.6631 15.0246L16.1961 15.3374Z" fill="#221D1E"/>
</g>
</svg>
