<svg width="30" height="30" viewBox="0 0 30 30" fill="none" xmlns="http://www.w3.org/2000/svg">
    <path d="M15 26.25C21.2132 26.25 26.25 21.2132 26.25 15C26.25 8.7868 21.2132 3.75 15 3.75C8.7868 3.75 3.75 8.7868 3.75 15C3.75 21.2132 8.7868 26.25 15 26.25Z" stroke="#E6E6E6" stroke-width="2" stroke-linecap="round" stroke-linejoin="round"/>
    <path d="M19.873 17.812C19.3788 18.6668 18.6685 19.3765 17.8132 19.87C16.958 20.3634 15.988 20.6232 15.0006 20.6232C14.0133 20.6232 13.0433 20.3634 12.188 19.87C11.3328 19.3766 10.6224 18.6669 10.1282 17.8121" stroke="#E6E6E6" stroke-width="2" stroke-linecap="round" stroke-linejoin="round"/>
    <path d="M10.7812 14.0625C11.5579 14.0625 12.1875 13.4329 12.1875 12.6562C12.1875 11.8796 11.5579 11.25 10.7812 11.25C10.0046 11.25 9.375 11.8796 9.375 12.6562C9.375 13.4329 10.0046 14.0625 10.7812 14.0625Z" fill="#E6E6E6"/>
    <path d="M19.2188 14.0625C19.9954 14.0625 20.625 13.4329 20.625 12.6562C20.625 11.8796 19.9954 11.25 19.2188 11.25C18.4421 11.25 17.8125 11.8796 17.8125 12.6562C17.8125 13.4329 18.4421 14.0625 19.2188 14.0625Z" fill="#E6E6E6"/>
</svg>