<svg width="23" height="23" viewBox="0 0 23 23" fill="none" xmlns="http://www.w3.org/2000/svg">
    <path d="M13.25 6.75H16.25L13.25 9.75H16.25M17.75 0.75H21.75L17.75 4.75H21.75" stroke="#6E89C3" stroke-width="1.5" stroke-linecap="round" stroke-linejoin="round"/>
    <path d="M20 11.75C20 14.2033 19.0254 16.556 17.2907 18.2907C15.556 20.0254 13.2033 21 10.75 21V22.5C16.687 22.5 21.5 17.687 21.5 11.75H20ZM10.75 21C8.29675 21 5.94397 20.0254 4.20926 18.2907C2.47455 16.556 1.5 14.2033 1.5 11.75H0C0 17.687 4.813 22.5 10.75 22.5V21ZM1.5 11.75C1.5 9.29675 2.47455 6.94397 4.20926 5.20926C5.94397 3.47455 8.29675 2.5 10.75 2.5V1C4.813 1 0 5.813 0 11.75H1.5ZM14.25 14C12.725 14 11.2625 13.3942 10.1841 12.3159C9.1058 11.2375 8.5 9.77499 8.5 8.25H7C7 10.1728 7.76384 12.0169 9.12348 13.3765C10.4831 14.7362 12.3272 15.5 14.25 15.5V14ZM19.175 11.219C18.6633 12.0676 17.941 12.7697 17.0781 13.2569C16.2152 13.7442 15.241 14.0001 14.25 14V15.5C15.4994 15.5004 16.7277 15.1779 17.8157 14.5638C18.9037 13.9497 19.8146 13.0648 20.46 11.995L19.175 11.219ZM8.5 8.25C8.49986 7.25903 8.75583 6.28483 9.24309 5.42193C9.73035 4.55902 10.4324 3.83669 11.281 3.325L10.505 2.041C9.43535 2.68628 8.55058 3.59701 7.93649 4.68486C7.32239 5.77271 6.9998 7.00078 7 8.25H8.5ZM10.75 2.5C10.6997 2.49903 10.6502 2.48811 10.6042 2.46785C10.5582 2.4476 10.5166 2.41842 10.482 2.382C10.4398 2.33965 10.4113 2.28568 10.4 2.227C10.396 2.196 10.398 2.106 10.505 2.041L11.281 3.325C11.784 3.021 11.946 2.464 11.887 2.026C11.825 1.571 11.467 1 10.75 1V2.5ZM20.46 11.995C20.394 12.102 20.304 12.104 20.273 12.1C20.2143 12.0887 20.1603 12.0602 20.118 12.018C20.0816 11.9834 20.0524 11.9418 20.0321 11.8958C20.0119 11.8498 20.001 11.8003 20 11.75H21.5C21.5 11.033 20.929 10.675 20.474 10.613C20.036 10.554 19.479 10.716 19.175 11.219L20.46 11.995Z" fill="#6E89C3"/>
</svg>