<svg width="60" height="61" viewBox="0 0 60 61" fill="none" xmlns="http://www.w3.org/2000/svg">
<path d="M50.625 26.5V15.25" stroke="#6E89C3" stroke-width="3" stroke-linecap="round" stroke-linejoin="round"/>
<path d="M56.25 20.875H45" stroke="#6E89C3" stroke-width="3" stroke-linecap="round" stroke-linejoin="round"/>
<path d="M39.375 5.875V13.375" stroke="#6E89C3" stroke-width="3" stroke-linecap="round" stroke-linejoin="round"/>
<path d="M43.125 9.625H35.625" stroke="#6E89C3" stroke-width="3" stroke-linecap="round" stroke-linejoin="round"/>
<path d="M51.9298 35.3051C48.2119 36.1579 44.3382 36.0524 40.6723 34.9984C37.0063 33.9444 33.6682 31.9765 30.9709 29.2792C28.2737 26.582 26.3058 23.2438 25.2518 19.5779C24.1978 15.9119 24.0922 12.0383 24.945 8.32038L24.9448 8.32031C21.0305 9.22324 17.4293 11.1575 14.5151 13.9222C11.6009 16.687 9.47988 20.1814 8.37228 24.0427C7.26469 27.904 7.21091 31.9915 8.21651 35.8806C9.22211 39.7697 11.2504 43.3187 14.0909 46.1592C16.9314 48.9997 20.4804 51.028 24.3695 52.0336C28.2586 53.0393 32.3461 52.9855 36.2074 51.8779C40.0687 50.7703 43.5631 48.6493 46.3279 45.7351C49.0926 42.8209 51.0269 39.2197 51.9298 35.3055L51.9298 35.3051Z" stroke="#6E89C3" stroke-width="3" stroke-linecap="round" stroke-linejoin="round"/>
</svg>
