<svg width="60" height="61" viewBox="0 0 60 61" fill="none" xmlns="http://www.w3.org/2000/svg">
<g clip-path="url(#clip0_10898_377)">
<path d="M7.01562 31.4498H17.0956L21.1276 24.5378L29.1916 38.3618L33.2236 31.4498H39.2716" stroke="#6E89C3" stroke-width="3" stroke-linecap="round" stroke-linejoin="round"/>
<path d="M7.04459 23.0698C7.02541 22.7225 7.01576 22.374 7.01562 22.0242C7.01614 18.8775 8.07159 15.8281 10.0025 13.3945C11.9335 10.9608 14.6207 9.29318 17.6074 8.67502C20.594 8.05686 23.6957 8.52637 26.3852 10.0037C29.0746 11.4811 31.1857 13.8751 32.3596 16.7787L32.3596 16.7787C33.5335 13.8751 35.6446 11.4811 38.3341 10.0037C41.0235 8.52638 44.1252 8.05686 47.1119 8.67502C50.0985 9.29317 52.7858 10.9608 54.7167 13.3945C56.6477 15.8281 57.7031 18.8775 57.7036 22.0242C57.7036 39.8279 32.3596 54.4897 32.3596 54.4897C32.3596 54.4897 22.2361 48.6331 14.7855 39.8281" stroke="#6E89C3" stroke-width="3" stroke-linecap="round" stroke-linejoin="round"/>
</g>
<defs>
<clipPath id="clip0_10898_377">
<rect width="60" height="60" fill="white" transform="translate(0 0.25)"/>
</clipPath>
</defs>
</svg>
